<svg width="322" height="74" viewBox="0 0 322 74" fill="none" xmlns="http://www.w3.org/2000/svg">
<path d="M166.765 37.3051C166.588 37.4984 166.412 40.6877 166.412 44.3602V50.9321H159.801H153.189V44.1669V37.4017H149.222H145.255V55.3779V73.2573L149.046 72.9674L152.748 72.6774L153.013 65.1391L153.277 57.6974H159.801H166.412V65.429V73.1607H170.379H174.346V55.3779V37.595L170.731 37.2084C168.792 37.0151 167.029 37.0151 166.765 37.3051Z" fill="#004A8B"/>
<path d="M195.943 37.1117C179.811 37.4983 180.516 36.7251 180.516 55.1845C180.516 73.5472 179.811 72.6774 194.532 72.6774C205.287 72.6774 206.168 72.5807 208.02 70.4545C209.694 68.7149 210.047 67.2652 210.047 62.0463C210.047 52.865 208.637 51.512 197.441 50.9321L188.891 50.4489V47.5495V44.6501L198.852 44.3602L208.725 44.0702V40.301C208.725 38.1748 208.637 36.5319 208.548 36.6285C208.372 36.7251 202.73 37.0151 195.943 37.1117ZM202.113 60.5967C203.171 64.1726 201.144 65.4289 194.532 65.4289H188.45V62.0463V58.6637H194.973C200.791 58.6637 201.584 58.857 202.113 60.5967Z" fill="#004A8B"/>
<path d="M226.62 38.5616C224.857 40.5911 213.132 69.8748 213.132 72.1943C213.132 72.6775 214.895 73.1608 217.011 73.1608C220.802 73.1608 220.978 73.0641 222.476 68.8117L223.975 64.4626H230.675H237.462L238.785 68.5218C240.107 72.4842 240.371 72.6775 244.25 72.9675C246.542 73.1608 248.393 72.8708 248.393 72.3876C248.393 71.8077 245.749 64.5593 242.575 56.1511C236.669 40.4945 234.113 36.4354 230.41 36.4354C229.352 36.4354 227.589 37.4018 226.62 38.5616ZM232.878 51.8987C233.76 54.6048 234.289 57.0209 234.024 57.3109C233.76 57.6008 231.997 57.6974 230.058 57.5041L226.62 57.2142L228.383 52.092C229.352 49.3859 230.41 47.0664 230.675 47.0664C231.027 47.0664 231.997 49.2893 232.878 51.8987Z" fill="#004A8B"/>
<path d="M277.748 37.1118L273.957 37.4984V44.2636V50.9321H267.346H260.734V44.1669V37.4017H256.856H252.977L252.36 45.23C252.007 49.5791 252.007 57.6007 252.36 63.2062L252.977 73.2573L256.591 72.9674L260.294 72.6774L260.558 65.1391L260.823 57.6007L267.17 57.8906L273.516 58.1806L273.781 65.6223L274.045 73.1607H277.924H281.891V54.798C281.891 44.6502 281.803 36.5319 281.715 36.6286C281.538 36.7252 279.775 36.9185 277.748 37.1118Z" fill="#004A8B"/>
<path d="M82.4031 39.1414C81.169 40.6878 80.9045 43.3939 80.9045 57.0209V73.1608H84.8714H88.7501L89.0145 58.8572L89.279 44.6503L98.3586 44.3603L107.35 44.0704V40.7844V37.4018H95.6259C85.3121 37.4018 83.6373 37.5951 82.4031 39.1414Z" fill="#004A8B"/>
<path d="M113.697 38.5616C112.992 39.3348 112.639 44.3604 112.639 54.8948C112.639 74.0306 111.846 73.1608 127.801 73.1608H139.085V69.295V65.5258L129.653 65.2359L120.132 64.9459V61.5633V58.1807L129.212 57.8908L138.203 57.6009V54.3149V51.0289L129.212 50.739L120.132 50.4491V47.5497V44.6503L129.653 44.3604L139.085 44.0704V40.7845V37.4019H126.92C118.634 37.4019 114.402 37.7885 113.697 38.5616Z" fill="#004A8B"/>
<path d="M288.943 55.2813V73.1608H292.91H296.877V65.9123C296.877 61.9499 297.141 58.6639 297.582 58.6639C297.935 58.6639 301.196 61.9499 304.81 65.9123L311.334 73.1608H316.711L322 73.0641L312.832 63.6895L303.664 54.2182L311.951 45.81L320.237 37.4018H314.948H309.659L303.312 44.3603L296.877 51.3188V44.3603V37.4018H292.91H288.943V55.2813Z" fill="#004A8B"/>
<path d="M8.75642 71.8351C10.9912 72.9956 13.5301 73.6514 16.2222 73.6514H56.7778C65.7371 73.6514 73 66.3884 73 57.4291V37.1514H43.4402L37.3568 43.2347H60.8333V57.4291C60.8333 59.669 59.0176 61.4847 56.7778 61.4847H19.1068L8.75642 71.8351Z" fill="#51B032"/>
<path d="M55.1556 12.818H16.2222C13.9824 12.818 12.1667 14.6338 12.1667 16.8736V55.8069L2.26749 65.7061C0.827145 63.2829 0 60.4526 0 57.4291V16.8736C0 7.9143 7.26294 0.651367 16.2222 0.651367H56.7778C59.8013 0.651367 62.6316 1.47851 65.0547 2.91886L55.1556 12.818Z" fill="#004A8B"/>
<path d="M24.7389 43.2347H21.6972V37.1514H30.8222L24.7389 43.2347Z" fill="#51B032"/>
</svg>
