<svg width="277" height="54" viewBox="0 0 277 54" fill="none" xmlns="http://www.w3.org/2000/svg">
<path fill-rule="evenodd" clip-rule="evenodd" d="M29.737 0.579203C29.5602 0.849182 26.9405 5.04989 23.9155 9.91437C20.8904 14.7789 17.2952 20.5499 15.9261 22.7389C14.5571 24.9279 11.4235 29.9527 8.96229 33.9051C6.50134 37.8575 3.54815 42.5838 2.39981 44.408C1.25127 46.2322 0.23895 47.9735 0.149845 48.2775C-0.355497 50.0019 0.430272 51.6048 2.31132 52.6869C5.90034 54.7519 11.929 54.3331 15.5139 51.77C16.6819 50.9348 17.6656 49.3702 17.6656 48.3476C17.6656 47.9109 19.7463 42.0204 22.8642 33.6314C25.7234 25.938 29.0103 16.8812 30.1682 13.5055C31.3262 10.1295 32.3057 7.40209 32.3451 7.44454C32.3844 7.48677 32.0925 10.2489 31.6965 13.5824C31.1025 18.5836 29.956 29.6613 29.956 30.4009L37.4671 30.4133L39.5528 26.4979C42.5539 20.8637 46.0253 14.2051 47.8841 10.5174C48.7589 8.78161 49.5101 7.39966 49.5533 7.44609C49.6148 7.51265 43.5167 29.1857 43.1195 30.312C43.1044 30.3547 43.1246 30.3914 43.1896 30.4227L50.6053 30.4349L54.4244 15.7186C56.5468 7.54006 58.3266 0.674724 58.3799 0.461792C58.47 0.100936 58.1388 0.0748444 53.4758 0.0748444H48.475L45.6314 5.43684C42.1313 12.0368 35.728 23.7678 35.4666 24.0588C35.3458 24.1932 35.3126 24.0285 35.3773 23.6165C35.4341 23.2554 35.762 20.174 36.1061 16.7689C36.4503 13.3637 37.0326 8.21468 37.4003 5.32628L38.0691 0.0748444L34.0637 0.0816985C30.1637 0.088553 30.05 0.101599 29.737 0.579203ZM9.28082 38.3274C11.2872 34.9831 13.6818 30.978 14.6018 29.4276C16.3288 26.5169 16.9222 25.7352 15.8609 27.7693C14.0356 31.2673 7.62837 43.821 7.62837 43.8992C7.62837 43.9499 8.4422 43.9494 9.43711 43.8981C12.4434 43.7429 15.4334 44.7905 16.6158 46.4133C16.9201 46.8307 17.051 47.3249 17.051 48.0557C17.051 50.4795 14.1474 52.5834 10.0428 53.134C6.7664 53.5736 3.62333 52.7592 1.97641 51.044C1.24943 50.287 1.05852 48.7115 1.56611 47.6584C1.98522 46.7892 2.64399 46.1919 4.2272 45.2469L5.63261 44.408L9.28082 38.3274Z" fill="#21273D"/>
<path d="M65.0184 1.78847C64.7873 2.73108 63.7572 7.08413 62.7291 11.4622C60.1641 22.3863 58.4266 29.7394 58.3012 30.2015C58.2712 30.3122 58.2979 30.3914 58.585 30.448L75.1802 30.4752C76.4455 30.298 76.2201 29.8641 76.3563 28.8195L76.486 27.8245L71.5624 27.873C68.3208 27.905 66.5938 27.8429 66.5069 27.6912C66.4344 27.5643 66.9146 24.8813 67.5742 21.7289L68.7733 15.9972L73.6163 15.9961C79.0336 15.9948 78.5942 16.1438 78.8295 14.2287L78.9658 13.1205H74.228C71.3062 13.1205 69.4902 13.0383 69.4902 12.9063C69.4902 12.7884 69.9511 10.5269 70.5144 7.88058C71.0778 5.2343 71.5386 3.04417 71.5386 3.01344C71.5386 2.9827 73.629 2.93096 76.1842 2.89824L80.8296 2.83876L80.9646 2.28597C81.0387 1.98194 81.1549 1.36017 81.2225 0.904018L81.3452 0.0748444H73.3918H65.4383L65.0184 1.78847Z" fill="#21273D"/>
<path d="M85.1931 0.240679C85.1413 0.331778 85.0331 0.978755 84.9526 1.67791L84.8062 2.94931H87.3851H89.9641L89.8608 3.55737C89.8041 3.8917 88.9798 9.53848 88.0291 16.1055C87.0785 22.6726 86.1411 28.5783 85.9463 29.2293C85.7483 29.8902 85.6724 30.2139 85.7092 30.4925L93.8663 30.5059V28.7324C93.8663 27.4937 94.0029 25.3896 94.17 24.0568C94.3372 22.7239 94.9343 17.8523 95.497 13.2311C96.0597 8.60981 96.5739 4.40601 96.6396 3.88904L96.7592 2.94931H99.4095C101.857 2.94931 102.06 2.91792 102.06 2.53804C102.06 2.31162 102.118 1.66487 102.19 1.10081L102.32 0.0748444H93.8038C89.1197 0.0748444 85.2447 0.149581 85.1931 0.240679Z" fill="#21273D"/>
<path fill-rule="evenodd" clip-rule="evenodd" d="M109.137 7.53741C106.678 17.6706 104.046 27.6388 103.518 28.8167C103.191 29.5487 103.051 30.0738 103.111 30.5211L110.846 30.5338C110.862 30.4157 110.868 30.2853 110.868 30.1358C110.868 29.3367 112.029 22.71 112.232 22.352C112.284 22.2609 113.463 22.1861 114.852 22.1861H117.377L117.494 22.9048C117.558 23.2999 117.712 25.0661 117.837 26.8295C117.972 28.7363 118.09 29.8405 118.34 30.5461L125.749 30.5583C125.8 30.0082 125.615 29.1972 125.247 27.8245C124.761 26.0123 123.297 16.4549 122.123 7.42597C121.669 3.92995 121.253 0.845866 121.199 0.572349L121.102 0.0748444H116.025H110.949L109.137 7.53741ZM112.802 19.2011L114.233 11.4069C115.118 6.5895 115.754 3.61265 115.899 3.61265C116.056 3.61265 116.181 4.53337 116.276 6.37303C116.354 7.89141 116.593 11.3956 116.807 14.1604C117.021 16.9252 117.168 19.2188 117.132 19.2573C117.096 19.2958 116.107 19.2989 114.935 19.2641L112.802 19.2011Z" fill="#21273D"/>
<path d="M205.709 0.306793C205.709 0.491422 211.572 22.6971 213.31 29.0959L213.674 30.4355L221.072 30.4129C221.072 30.2596 217.694 18.4458 217.187 16.8242C217.082 16.4898 217.027 16.2161 217.064 16.2161C217.101 16.2161 219.134 19.4499 221.583 23.4023L225.922 30.4054L233.025 30.3879C233.036 30.3294 232.99 30.2539 232.927 30.1564C230.023 25.693 224.961 17.8809 224.056 16.4651L222.871 14.6137L222.699 7.39944C222.604 3.43178 222.522 0.160636 222.516 0.130123C222.511 0.0996091 221.022 0.0748444 219.208 0.0748444H215.91L216.03 6.5424L216.15 13.01L215.275 10.1355C214.794 8.55453 213.943 5.64557 213.383 3.67103L212.367 0.0812566L209.038 0.07794C206.85 0.07595 205.709 0.154225 205.709 0.306793Z" fill="#21273D"/>
<path fill-rule="evenodd" clip-rule="evenodd" d="M237.613 0.0235457C233.603 0.0724117 232.748 0.137199 232.748 0.392806C232.748 0.563284 232.984 1.87979 233.272 3.31857C234.235 8.1207 236.23 18.9185 237.167 24.3973C237.676 27.3768 238.141 29.9886 238.2 30.2015C238.219 30.2709 238.248 30.328 238.309 30.3749L245.448 30.3574C245.448 30.1475 243.942 23.5 243.682 22.5658C243.581 22.2014 243.746 22.1762 245.851 22.2341L248.13 22.2967L253.651 34.97C256.688 41.9404 259.173 47.839 259.173 48.078C259.173 49.4043 260.705 51.3014 262.624 52.3513C264.638 53.4529 266.617 53.9075 269.415 53.9119C272.763 53.9172 274.529 53.3551 276.011 51.814C276.927 50.861 276.994 50.7157 276.994 49.6893C276.994 48.3082 277.077 48.444 271.244 40.2719C258.103 21.86 243.638 1.42076 243.258 0.725359C243.066 0.375116 242.812 0.0606928 242.694 0.0264203C242.575 -0.00763113 240.289 -0.00895791 237.613 0.0235457ZM240.972 11.7607C239.922 7.60772 239.014 4.07544 238.956 3.91116C238.894 3.73692 238.987 3.61265 239.179 3.61265C239.36 3.61265 239.508 3.69336 239.508 3.79198C239.508 3.95184 245.154 15.212 246.708 18.1508L247.322 19.3117H245.103H242.883L240.972 11.7607ZM258.422 38.7782C256.778 35.3077 254.931 31.4231 254.316 30.1462C253.703 28.8693 253.33 27.9943 253.488 28.2017C253.647 28.4091 255.777 32.1477 258.223 36.5094L262.671 44.4401L263.943 44.1524C270.005 42.7811 277.247 46.754 275.465 50.4734C274.626 52.2237 272.341 53.1886 269.005 53.201C267.621 53.2063 266.379 53.0754 265.523 52.8346C260.56 51.4383 258.257 47.9018 260.821 45.6153L261.412 45.0888L258.422 38.7782Z" fill="#21273D"/>
<path fill-rule="evenodd" clip-rule="evenodd" d="M132.952 13.0035C133.038 24.8528 133.017 25.9796 132.701 26.5001C132.314 27.1375 131.422 27.6242 130.277 27.8223L129.509 27.9552V29.2717V30.5645V30.5884H132.538C132.938 30.5884 133.318 30.5829 133.679 30.5713C137.49 30.4497 139.222 29.6666 139.984 27.8071C140.37 26.8631 140.378 26.5677 140.174 19.8079C140.058 15.9474 139.901 10.5751 139.825 7.86908L139.687 2.94931H141.326H142.964L143.102 6.76351C143.398 14.9372 143.841 25.9468 143.966 28.2115L144.097 30.5884H147.762H151.426V29.7299C151.426 29.2576 151.012 22.5795 150.505 14.8894C149.998 7.19933 149.583 0.720274 149.583 0.491201C149.583 0.0903231 149.273 0.0748444 141.22 0.0748444H132.858L132.952 13.0035ZM157.572 0.428404C157.572 0.622983 158.082 6.26955 158.707 12.9766C159.331 19.6836 159.815 25.5095 159.782 25.9232C159.708 26.8649 159.004 27.4677 157.664 27.7379C157.125 27.8466 156.671 27.9603 156.657 27.9906C156.642 28.0209 156.666 28.6179 156.71 29.317L156.789 30.5753L156.79 30.5884L159.793 30.5849C164.451 30.5796 166.386 29.8643 167.085 27.8882C167.409 26.9728 167.397 26.705 166.794 21.519C165.815 13.1039 164.753 4.22801 164.645 3.55737L164.547 2.94931H166.158C167.661 2.94931 167.777 2.98292 167.877 3.44682C167.936 3.72056 168.749 9.93936 169.684 17.2664L171.376 30.5394L171.382 30.5884H175.145H178.908L178.895 30.5209L178.791 29.9804C178.727 29.6461 177.705 23.054 176.519 15.3316C175.334 7.60927 174.312 1.01745 174.248 0.682905L174.131 0.0748444H165.852C158.4 0.0748444 157.572 0.110222 157.572 0.428404Z" fill="#21273D"/>
<path d="M181.206 0.461792C181.264 0.674724 181.551 2.24175 181.844 3.94432C182.137 5.64689 182.923 10.0747 183.589 13.7839C184.255 17.493 185.198 22.7666 185.685 25.5028L186.57 30.4779V30.5021L194.003 30.4838L194.122 29.4325C194.255 28.1237 194.647 17.3787 194.647 15.0183C194.648 14.1772 194.703 13.5484 194.77 13.6209C194.891 13.7513 197.57 24.8187 198.743 30.4722L206 30.4551C205.9 30.0599 203.219 19.0103 201.597 12.2913L198.648 0.0748444H195.346H192.043L191.912 1.43403C191.839 2.18139 191.78 4.9924 191.779 7.68047C191.778 12.0581 191.597 17.6429 191.46 17.4904C191.432 17.4583 190.656 13.7009 189.736 9.14048C188.817 4.58002 188.019 0.674724 187.962 0.461792C187.871 0.113318 187.524 0.0748444 184.481 0.0748444C181.358 0.0748444 181.109 0.104252 181.206 0.461792Z" fill="#21273D"/>
</svg>
