<svg width="168" height="106" viewBox="0 0 168 106" fill="none" xmlns="http://www.w3.org/2000/svg">
<g clip-path="url(#clip0_37_386)">
<mask id="mask0_37_386" style="mask-type:luminance" maskUnits="userSpaceOnUse" x="0" y="0" width="168" height="106">
<path d="M168 0.651367H0V105.651H168V0.651367Z" fill="white"/>
</mask>
<g mask="url(#mask0_37_386)">
<path d="M144.041 105.63H-10L3.9614 59.8779H158L144.041 105.63Z" fill="#00AEC7"/>
<path d="M55.714 42.7249V14.1148H68.2657V23.5907H74.0378V14.1148H86.5874V42.7249H74.0378V33.2448H68.2657V42.7249H55.714ZM117.823 26.8165L122.589 14.1148H110.351L106.541 23.5928H104.297V14.1148H91.746V42.7271H104.297V33.2469H107.297L111.109 42.7271H123.635L117.823 26.8165ZM141.394 34.0104C138.365 34.0104 137.654 31.6372 137.654 29.7878C137.654 27.9469 138.365 25.6288 141.394 25.6288C144.361 25.6288 145.074 27.9469 145.074 29.7878C145.074 31.6372 144.361 34.0104 141.394 34.0104ZM145.906 17.3003C142.105 17.3003 139.495 18.7828 137.715 20.6894C137.774 18.2504 139.552 15.6927 141.986 14.6853C146.201 12.8974 151.069 14.1466 154.513 11.1117V0.672852C154.513 0.672852 151.568 1.88385 146.137 2.52435C142.873 2.91034 138.244 3.94955 134.153 6.53486C129.045 9.74582 125.426 15.0395 125.426 25.7455C125.426 39.7239 133.496 43.6475 141.808 43.6475C150 43.6475 157.302 39.4864 157.302 30.3244C157.302 21.5229 152.078 17.3003 145.906 17.3003ZM34.1031 33.6053C32.3781 33.6053 30.9493 32.5894 30.4138 31.5778V25.2598C31.0086 24.246 32.3781 23.2344 34.1031 23.2344C37.1341 23.2344 38.4444 25.8558 38.4444 28.4199C38.4444 28.738 38.4232 29.0625 38.3809 29.3764C38.093 31.5969 36.7553 33.6053 34.1031 33.6053ZM51.3516 28.4199C51.3516 21.3829 48.164 14.7319 40.9801 13.4022C40.8171 13.3725 40.652 13.3449 40.4827 13.3216C40.0615 13.2601 39.6254 13.2113 39.1746 13.188C38.8761 13.171 38.5735 13.1625 38.2644 13.1625C37.9999 13.1625 37.7395 13.1689 37.4792 13.1837C37.4686 13.1837 37.4601 13.1837 37.4474 13.188C35.1509 13.3237 33.1358 14.0405 31.5991 15.1179C30.5387 15.8263 29.6412 16.6725 28.9279 17.5696L27.8717 14.1148H17.9214V54.1542H30.4731V40.9965C31.3536 41.7854 32.4627 42.4662 33.7983 42.9413C35.0408 43.446 36.4695 43.6793 38.2644 43.6793C47.3681 43.6793 51.3516 36.2861 51.3516 28.4199Z" fill="#333E48"/>
</g>
</g>
<defs>
<clipPath id="clip0_37_386">
<rect width="168" height="105" fill="white" transform="translate(0 0.651367)"/>
</clipPath>
</defs>
</svg>
